# xmcd
#
# Track frame offsets: 
#        150
#        14708
#        31214
#        46540
#        64865
#        81855
#        96130
#        116458
#        137239
#        155264
#        169467
#        184160
#        202182
#        218876
#        240664
#        257088
#        274379
#        286265
#
# Disc length: 3995 seconds
#
# Revision: 3
# Processed by: cddbd v1.5.2PL0 Copyright (c) Steve Scherf et al.
# Submitted via: ExactAudioCopy v1.3
#
DISCID=0a0f9912
DTITLE=蘇永康 - So Great
DYEAR=2011
DGENRE=Jazz
TTITLE0=3000 c.c. 的約會
TTITLE1=霓虹夜雨
TTITLE2=愛是這樣微妙
TTITLE3=沒有季節的火花
TTITLE4=親您
TTITLE5=難及妳完美
TTITLE6=一人精彩
TTITLE7=I Like You
TTITLE8=有人喜歡藍
TTITLE9=山水有相逢
TTITLE10=紅
TTITLE11=難得糊塗
TTITLE12=談心
TTITLE13=信不信由你
TTITLE14=午夜麗人
TTITLE15=眉來眼
TTITLE16=割愛 (Jass Version)
TTITLE17=黑夜不再來
EXTD=YEAR: 2011
EXTT0=
EXTT1=
EXTT2=
EXTT3=
EXTT4=
EXTT5=
EXTT6=
EXTT7=
EXTT8=
EXTT9=
EXTT10=
EXTT11=
EXTT12=
EXTT13=
EXTT14=
EXTT15=
EXTT16=
EXTT17=
PLAYORDER=
